<svg id="Layer_1" data-name="Layer 1" xmlns="http://www.w3.org/2000/svg" viewBox="0 0 360 360"><defs><style>.cls-1{fill:#ffd100;}</style></defs><title>Action-Icons</title><path class="cls-1" d="M179.63,339.55c-88.48,0-160.46-72-160.46-160.46s72-160.46,160.46-160.46,160.46,72,160.46,160.46S268.1,339.55,179.63,339.55Zm0-317.32c-86.5,0-156.86,70.37-156.86,156.86S93.13,336,179.63,336s156.86-70.37,156.86-156.86S266.12,22.23,179.63,22.23Z"/><path class="cls-1" d="M86.44,217.49,68.55,168.32l23.85-8.68,17.9,49.16Zm-13.28-47,15.44,42.4,17.08-6.22-15.43-42.4Z"/><path class="cls-1" d="M103.61,200.55l-11-30.29,49.16-17.89,11,30.28ZM97.2,172.42l8.56,23.51,42.4-15.43L139.6,157Z"/><path class="cls-1" d="M154.47,197.84l-21.18-58.2L213,100.38l27.76,76.27Zm-16.7-56.39,19,52.13,79.3-19.47-25-68.73Z"/><path class="cls-1" d="M259.42,174.62,228.61,90l2.89.33c14,1.61,27.92,15.24,34.72,33.91s4.87,38.08-4.8,48.3Zm-25.36-80.2,26.67,73.29c7-9.73,7.95-26.21,2.11-42.27S245.7,97.35,234.06,94.42Z"/><path class="cls-1" d="M241.45,189l-35.82-98.4,23.86-8.69,35.81,98.41ZM210.25,92.7l33.35,91.63,17.09-6.22L227.34,86.48Z"/><path class="cls-1" d="M188.05,172.53a14.83,14.83,0,1,1,14.82-14.82A14.84,14.84,0,0,1,188.05,172.53Zm0-26.05a11.23,11.23,0,1,0,11.22,11.23A11.24,11.24,0,0,0,188.05,146.48Z"/><rect class="cls-1" x="186.25" y="232.79" width="3.6" height="43.02"/><path class="cls-1" d="M187.43,236.24A62.16,62.16,0,0,1,144,218.63l2.51-2.58a58.84,58.84,0,0,0,83.11-1.19l2.58,2.51A62.21,62.21,0,0,1,187.43,236.24Z"/><polygon class="cls-1" points="244.08 275.81 224.59 275.81 188.06 163.55 151.85 275.81 132.07 275.81 132.07 272.21 149.23 272.21 188.04 151.87 227.21 272.21 244.08 272.21 244.08 275.81"/></svg>