<svg id="Layer_1" data-name="Layer 1" xmlns="http://www.w3.org/2000/svg" viewBox="0 0 360 360"><defs><style>.cls-1{fill:#e5004b;}</style></defs><title>Action-Icons</title><path class="cls-1" d="M179.84,340.44c-88.48,0-160.46-72-160.46-160.46s72-160.46,160.46-160.46S340.3,91.5,340.3,180,268.32,340.44,179.84,340.44Zm0-317.32C93.35,23.12,23,93.49,23,180S93.35,336.84,179.84,336.84,336.7,266.47,336.7,180,266.33,23.12,179.84,23.12Z"/><path class="cls-1" d="M179.81,259.77a80.43,80.43,0,1,1,80.43-80.43A80.52,80.52,0,0,1,179.81,259.77Zm0-157.25a76.83,76.83,0,1,0,76.83,76.82A76.91,76.91,0,0,0,179.81,102.52Z"/><path class="cls-1" d="M253.32,101.24a12,12,0,1,1,12-12A12,12,0,0,1,253.32,101.24Zm0-20.42a8.41,8.41,0,1,0,8.41,8.41A8.43,8.43,0,0,0,253.32,80.82Z"/><path class="cls-1" d="M179.81,233.14c-44.35,0-80.43-24.13-80.43-53.8s36.08-53.79,80.43-53.79,80.43,24.13,80.43,53.79S224.16,233.14,179.81,233.14Zm0-104c-42.36,0-76.83,22.52-76.83,50.19s34.47,50.2,76.83,50.2,76.83-22.52,76.83-50.2S222.17,129.15,179.81,129.15Z"/><rect class="cls-1" x="251.52" y="99.44" width="3.6" height="49.33"/><path class="cls-1" d="M108.87,212.1l-3-.75c-10.17-2.58-17.54-16-17.54-32,0-15.73,7.23-29.17,17.18-32l3-.84-.77,3a120.84,120.84,0,0,0,.31,59.61Zm-5.43-59.92C96.72,156.3,92,167.17,92,179.31c0,12.37,4.88,23.32,11.77,27.3a125.22,125.22,0,0,1-.29-54.43Z"/><path class="cls-1" d="M250.81,212.1l.79-3a120.84,120.84,0,0,0,.31-59.61l-.77-3,3,.84c9.95,2.79,17.18,16.23,17.18,32,0,16-7.37,29.46-17.54,32Zm5.43-59.92a125.22,125.22,0,0,1-.29,54.43c6.89-4,11.77-14.93,11.77-27.3C267.72,167.17,263,156.3,256.24,152.18Z"/><path class="cls-1" d="M177.76,282.71a84.78,84.78,0,0,1-17.92-1.91c-16-3.46-25.83-10.27-26.24-10.56l-.76-.54v-26h3.6v24.11c5.61,3.49,41.16,23.54,83.67-.08V245.76h3.6v24.05l-.91.52C206.19,279.78,190.64,282.71,177.76,282.71Z"/><path class="cls-1" d="M129.73,176.77a1.8,1.8,0,0,1-1.8-1.8,27.84,27.84,0,0,1,27.81-27.8,1.8,1.8,0,0,1,0,3.6A24.23,24.23,0,0,0,131.53,175,1.79,1.79,0,0,1,129.73,176.77Z"/></svg>