<svg id="Layer_1" data-name="Layer 1" xmlns="http://www.w3.org/2000/svg" viewBox="0 0 360 360"><defs><style>.cls-1{fill:#ff6b12;}</style></defs><title>Action-Icons</title><path class="cls-1" d="M179.56,340.55c-88.48,0-160.46-72-160.46-160.46s72-160.46,160.46-160.46S340,91.61,340,180.09,268,340.55,179.56,340.55Zm0-317.32C93.07,23.23,22.7,93.6,22.7,180.09S93.07,337,179.56,337s156.86-70.37,156.86-156.86S266.05,23.23,179.56,23.23Z"/><path class="cls-1" d="M209.22,175.13a25.76,25.76,0,1,1,18.24-7.54h0A25.72,25.72,0,0,1,209.22,175.13Zm0-47.95a22.18,22.18,0,1,0,15.69,6.49A22.1,22.1,0,0,0,209.22,127.18Z"/><rect class="cls-1" x="237.33" y="98.19" width="3.6" height="42.52" transform="translate(-14.43 204.07) rotate(-45)"/><path class="cls-1" d="M117.74,276.61,244.27,174.06l17.8-75.92L186.16,116,84.49,242.67l12.81-73.6,42.43-1,44.4-55.35L266.9,93.31l-19.41,82.78-55.52,45-2.8,40.43Zm70.41-52.43L131.61,270l54.16-11.44ZM100.34,172.6l-9.9,56.91,46.34-57.77Z"/><path class="cls-1" d="M106.77,251.16l28.9-62H168.8v33.13ZM138,192.73l-23.76,51,51-23.76V192.73Z"/><rect class="cls-1" x="131.15" y="181.84" width="3.6" height="10.74" transform="translate(-93.44 148.84) rotate(-45)"/><rect class="cls-1" x="169.57" y="220.26" width="3.6" height="10.74" transform="translate(-109.35 187.26) rotate(-45)"/><polygon class="cls-1" points="102.5 255.3 67.73 292.61 65.19 290.07 102.5 255.3"/><polygon class="cls-1" points="85.01 255.83 58.54 284.85 55.99 282.31 85.01 255.83"/><polygon class="cls-1" points="107.19 273.13 79.51 303.35 76.97 300.81 107.19 273.13"/></svg>